<svg width="24" height="24" viewBox="0 0 24 24" fill="none" xmlns="http://www.w3.org/2000/svg">
<rect width="24" height="24" fill="#E6F1FA"/>
<path d="M12.5 18.1347L12.433 18.0743L11.6357 17.355C10.2214 16.0843 9.03929 15.0216 8.21192 14.0187C7.38348 13.0144 6.9 12.0577 6.9 10.9973C6.9 9.25714 8.27676 7.9 10.025 7.9C10.9725 7.9 11.8821 8.31909 12.5 8.98382C13.1179 8.31909 14.0275 7.9 14.975 7.9C16.7232 7.9 18.1 9.25714 18.1 10.9973C18.1 12.0577 17.6165 13.0144 16.7881 14.0187C15.9607 15.0216 14.7787 16.0843 13.3645 17.3549L12.5 18.1347ZM12.5 18.1347L12.567 18.0743L13.3643 17.355L12.5 18.1347ZM12.4973 16.3916C11.1933 15.2193 10.1173 14.251 9.36577 13.3802C8.6115 12.5061 8.2 11.7475 8.2 10.9973C8.2 9.96345 8.97936 9.18992 10.025 9.18992C10.8337 9.18992 11.62 9.71225 11.8954 10.4126L11.9204 10.476H11.9885H13.0115H13.0796L13.1046 10.4126C13.38 9.71225 14.1663 9.18992 14.975 9.18992C16.0206 9.18992 16.8 9.96345 16.8 10.9973C16.8 11.7475 16.3885 12.5061 15.6336 13.3801C14.8814 14.251 13.804 15.2192 12.4973 16.3916Z" fill="black" stroke="black" stroke-width="0.2"/>
</svg>
