<svg width="235" height="141" viewBox="0 0 235 141" fill="none" xmlns="http://www.w3.org/2000/svg">
<rect width="235" height="141" fill="white"/>
<path fill-rule="evenodd" clip-rule="evenodd" d="M177.285 57.1807L178.575 57.2252C179.458 57.2252 180.103 57.259 180.465 57.3141C180.837 57.3702 181.109 57.4814 181.29 57.6264C181.529 57.7937 181.686 58.0838 181.742 58.4735C181.788 58.8747 181.822 59.6541 181.822 60.8241V78.0129L164.505 56.4351H155.288V57.1816H158.807L159.608 57.7047V82.1804C159.608 82.2355 159.597 82.3023 159.587 82.3574C159.577 82.4126 159.565 82.458 159.565 82.4909C159.474 83.45 159.281 84.1049 158.998 84.4634C158.716 84.8078 157.969 84.9759 156.759 84.943H153.151L141.965 56H141.343L139.919 59.9104L131.991 81.6554C131.855 82.0567 131.707 82.4251 131.594 82.7258C131.481 83.0372 131.357 83.3166 131.243 83.539C130.881 84.241 130.452 84.6636 129.943 84.7971C129.547 84.8976 128.914 84.9537 128.032 84.9537V84.943H123.713V57.1807H128.033V56.4342H119.392L110.31 78.4141L100.602 56.4342H92.3113V57.1807H96.0556L96.4512 57.9717V82.2685C96.4512 83.3495 96.2588 84.0844 95.8749 84.4403C95.4901 84.8069 94.7439 84.9759 93.6473 84.9421H92.1433V85.6877H101.892V84.9421L100.603 84.9857C98.9634 84.9857 97.9896 84.7179 97.6734 84.1725C97.3681 83.6369 97.2091 82.8254 97.2091 81.7435V81.3894V81.0433C97.177 80.9195 97.1618 80.792 97.1639 80.6643V59.5981L108.35 85.1201L119.388 58.6737V84.943H115.113V85.6886H136.626V84.943L135.246 84.9866C134.172 84.9866 133.413 84.8861 132.951 84.709C132.497 84.5195 132.261 84.1734 132.261 83.7169C132.261 83.5728 132.305 83.3379 132.394 83.0167C132.487 82.6938 132.622 82.2471 132.791 81.7008L134.838 76.1311H144.995L148.421 84.943H143.977V85.6886H164.945V84.9866C162.696 84.9866 161.35 84.7971 160.93 84.3958C160.524 84.0061 160.308 82.6368 160.308 80.2968V58.4948L182.228 85.9101H182.487V60.8686C182.487 59.7547 182.51 59.0304 182.533 58.6737C182.556 58.3284 182.659 58.0384 182.805 57.8382C182.828 57.8382 182.861 57.8159 182.872 57.7937C182.891 57.7611 182.914 57.731 182.941 57.7038C183.087 57.5036 183.336 57.3702 183.698 57.3141C184.049 57.259 184.672 57.2029 185.564 57.1807H186.808V56.4342H177.284V57.1807H177.285ZM139.917 75.3837H135.11L139.782 62.4061L139.917 62.7513L144.723 75.3846H139.917V75.3837ZM202 57.1807V56.4342H188.914V57.1807H193.222V84.943H188.914V85.6886H202V84.943H197.679V57.1807H202ZM89.3484 85.0311C89.156 85.0862 88.9871 85.1201 88.8389 85.1201C88.7486 85.1423 88.6583 85.1654 88.5679 85.1654H88.2617C87.2897 85.1654 86.6447 84.5853 86.362 83.45C86.0793 82.3138 85.8869 80.9979 85.7622 79.5049C85.7396 79.3608 85.7062 79.2149 85.6945 79.0708C85.6827 78.9266 85.6719 78.77 85.6719 78.6259C85.5945 77.6116 85.4548 76.6029 85.2536 75.6053C85.0612 74.6372 84.7225 73.8445 84.2473 73.2332C83.6602 72.4423 82.8671 71.8417 81.8951 71.4297C80.9231 71.016 79.5085 70.6824 77.6648 70.4261C77.756 70.4261 77.8346 70.4146 77.9132 70.4039C77.9917 70.3901 78.0711 70.3827 78.1508 70.3816C80.2664 70.0925 82.1887 69.4572 83.942 68.499C85.6945 67.5292 86.5653 65.8137 86.5653 63.3634C86.5653 60.8793 85.6945 59.1408 83.9646 58.1727C82.2338 57.1922 80.3224 56.6353 78.2411 56.5232C78.0547 56.4916 77.8657 56.4767 77.6766 56.4787C77.495 56.4787 77.3035 56.4564 77.1337 56.4342H61.7736V57.1807H66.0932V84.943H58.8667L47.6916 56H47.0702L45.6447 59.9104L37.7162 81.6554C37.569 82.0567 37.4335 82.4251 37.3206 82.7258C37.2077 83.0372 37.083 83.3166 36.9593 83.539C36.6088 84.241 36.1788 84.6636 35.6702 84.7971C35.1725 84.9208 34.2782 84.9759 33 84.943V85.6886H42.3422V84.943L40.9619 84.9866C39.8987 84.9866 39.1408 84.8861 38.6783 84.709C38.214 84.5195 37.9882 84.1734 37.9882 83.7169C37.9882 83.5728 38.0333 83.3379 38.1236 83.0167C38.2022 82.6938 38.3386 82.2471 38.5193 81.7008L40.5662 76.1311H50.7241L54.1513 84.943H49.6952V85.6886H75.0416V84.943H70.45V70.7713L72.1916 70.8167C73.7977 70.8167 75.1436 70.9155 76.2186 71.1281C77.598 71.3853 78.5483 71.8194 79.046 72.4209C79.9285 73.4895 80.5392 75.3837 80.8671 78.1018C80.924 78.448 80.98 78.8038 81.0026 79.1597C81.0369 79.5058 81.0812 79.8742 81.1381 80.2514C81.3757 82.3806 81.9186 83.8851 82.7668 84.7312C83.6033 85.5658 84.9718 86 86.8381 86C87.3132 86 87.754 85.9795 88.1497 85.9342C88.5453 85.8888 88.941 85.8007 89.3258 85.6895C89.5074 85.6895 89.6772 85.6566 89.8461 85.6005C90.0198 85.5401 90.1897 85.4694 90.3547 85.3888L90.0837 84.8087C89.7892 84.8976 89.5399 84.9759 89.3484 85.0311ZM45.6447 75.3837H40.8381L45.5092 62.4061L45.6447 62.7513L50.4513 75.3846H45.6447V75.3837ZM74.1021 69.9919C73.4797 70.0471 72.8465 70.0809 72.2241 70.0925C71.6134 70.104 71.0145 70.104 70.4491 70.0702V57.1807L72.01 57.2252C73.7182 57.2252 75.1202 57.2803 76.2177 57.4031C76.8735 57.4814 77.4164 57.5704 77.8464 57.6816C78.9999 57.9939 79.9502 58.6283 80.6855 59.5981C80.9574 59.9433 81.1941 60.3668 81.3865 60.8686C81.5789 61.3589 81.7379 61.8598 81.8508 62.3616C81.8734 62.584 81.9068 62.8287 81.9411 63.0636C81.9637 63.286 81.9863 63.5085 81.9863 63.7211C81.9863 66.0486 81.1607 67.6537 79.5094 68.5007C78.4682 69.032 77.3619 69.4288 76.2177 69.6814C75.5275 69.8362 74.8257 69.9359 74.1021 69.9919Z" fill="#3F3F3F"/>
</svg>
