<svg width="235" height="141" viewBox="0 0 235 141" fill="none" xmlns="http://www.w3.org/2000/svg">
<g clip-path="url(#clip0_3615_263653)">
<path d="M235 0H0V141H235V0Z" fill="white"/>
<path d="M159.096 81.3366L153.867 72.1621C156.183 71.053 157.658 68.7143 157.66 66.1461C157.66 62.4545 154.656 59.4509 150.964 59.4509H139.78V81.3357H144.753V72.8413H148.712L153.554 81.3366H159.096ZM144.672 68.6166V63.6862H150.032L150.012 63.6946C151.643 63.7822 152.683 64.7279 152.683 66.1562C152.683 67.5689 151.569 68.5589 149.909 68.6178H144.672V68.6166ZM119.468 81.3366V59.4509H135.819V63.6268H124.576V68.0052H134.434V72.2741H124.576V76.9426H136.376V81.3366H119.468ZM96.1451 81.3366L90.9157 72.1621C93.2317 71.053 94.7067 68.7139 94.7088 66.1461C94.7088 62.4545 91.7053 59.4509 88.0136 59.4509H76.8285V81.3357H81.8027V72.8413H85.7625L90.6033 81.3366H96.1451ZM81.7198 68.6166V63.6862H87.081L87.0599 63.6946C88.6916 63.7822 89.7321 64.7279 89.7321 66.1562C89.7321 67.5689 88.6179 68.5589 86.9572 68.6178H81.7198V68.6166ZM63.5737 81.876C69.5577 81.876 73.1314 78.4353 73.1314 72.6733V59.4669H68.0237V72.3318C68.0237 75.4474 66.4017 77.2344 63.5741 77.2344H63.5712C60.7436 77.2344 59.1225 75.4478 59.1225 72.3318V59.4669H54.0127V72.6741C54.0127 78.4358 57.5864 81.8764 63.5712 81.8764L63.5737 81.876ZM47.3322 69.2154C50.2798 70.2205 51.7165 72.728 51.7165 75.1459C51.7165 78.5524 48.9504 81.3256 45.5468 81.3366H33.4648V59.4492H44.5927C47.4893 59.4762 49.8246 61.8305 49.828 64.7275C49.8317 66.555 48.8868 68.2545 47.3322 69.2154ZM38.479 77.2529H44.0634C45.8189 77.2529 46.7372 75.9438 46.7372 74.6494C46.7372 73.6068 45.9081 72.1389 44.0634 72.1389H38.479V77.2529ZM42.5681 68.0566C43.8541 68.0566 44.863 67.0632 44.863 65.7949C44.863 64.5687 43.8103 63.5333 42.5673 63.5333H38.479V68.0566H42.5681Z" fill="#3F3F3F"/>
<path d="M112.341 69.2118C115.288 70.2161 116.725 72.7245 116.725 75.1423C116.725 78.5493 113.959 81.3212 110.555 81.333L98.4736 81.3322V59.4457L109.6 59.4453C112.497 59.4727 114.832 61.8273 114.836 64.7248C114.839 66.5523 113.895 68.2505 112.34 69.211L112.341 69.2118ZM103.487 77.2494H109.071C110.827 77.2494 111.745 75.9403 111.745 74.6459C111.745 73.6037 110.915 72.1354 109.071 72.1354H103.487V77.2494ZM107.575 68.053C108.863 68.053 109.872 67.0597 109.872 65.7914C109.872 64.5652 108.819 63.5298 107.575 63.5298H103.487V68.053H107.575Z" fill="#3F3F3F"/>
<path d="M180.741 81.3349L175.512 72.1604C177.828 71.0513 179.303 68.7122 179.305 66.1444C179.305 62.4528 176.302 59.4492 172.61 59.4492H161.425V81.334H166.399V72.8396H170.359L175.2 81.3349H180.742H180.741ZM166.316 68.6149V63.6845H171.677L171.656 63.6929C173.288 63.7805 174.329 64.7262 174.329 66.1545C174.329 67.5672 173.215 68.5572 171.553 68.6161H166.316V68.6149ZM188.009 81.3349V72.4168L179.327 59.4492H185.705L190.703 66.9735L195.722 59.4492H202.1L193.397 72.4168V81.3349H188.009Z" fill="#3F3F3F"/>
</g>
<defs>
<clipPath id="clip0_3615_263653">
<rect width="235" height="141" fill="white"/>
</clipPath>
</defs>
</svg>
