<svg width="235" height="141" viewBox="0 0 235 141" fill="none" xmlns="http://www.w3.org/2000/svg">
<rect width="235" height="141" fill="white"/>
<path fill-rule="evenodd" clip-rule="evenodd" d="M66.3454 75.1328C66.328 75.1669 66.294 75.2349 66.2773 75.2863C64.4383 78.7603 60.8275 81.1269 56.7065 81.1269C50.7291 81.1269 45.825 76.12 45.825 69.9384C45.825 63.791 50.7291 58.75 56.7065 58.75C60.8449 58.75 64.4723 61.1681 66.294 64.6934C66.3454 64.7615 66.362 64.7955 66.4134 64.8976C66.4308 64.915 62.9395 67.435 62.9055 67.3844C62.888 67.3163 62.8714 67.2649 62.8374 67.2309C61.8321 64.7275 59.4488 63.0585 56.7065 63.11C53.0451 63.144 50.0307 66.1749 50.0307 69.9384C50.0307 73.736 53.0451 76.8018 56.7065 76.8018C59.3634 76.8018 61.6794 75.1669 62.7345 72.8508C62.786 72.7655 62.8034 72.6974 62.8374 72.6294L66.3454 75.1328Z" fill="#3F3F3F"/>
<path fill-rule="evenodd" clip-rule="evenodd" d="M70.8582 58.9551H75.0473V66.7716H86.049V58.9551H90.2721V80.7015H86.049V71.148H75.0473V80.7015H70.8582V58.9551Z" fill="#3F3F3F"/>
<path fill-rule="evenodd" clip-rule="evenodd" d="M149.399 80.7015V58.9551H164.606V63.3482H153.639V67.6906H163.772V72.0332H153.639V76.3756H166.155V80.7015H149.399Z" fill="#3F3F3F"/>
<path fill-rule="evenodd" clip-rule="evenodd" d="M172.099 80.7015V58.9551H176.356V76.3756H188.175V80.7015H172.099Z" fill="#3F3F3F"/>
<path fill-rule="evenodd" clip-rule="evenodd" d="M126.545 80.7015H126.409H122.287V58.9551H122.594H128.196L137.511 72.0332V58.9551H141.735V80.7015H138.363L126.545 64.3021V80.7015Z" fill="#3F3F3F"/>
<path fill-rule="evenodd" clip-rule="evenodd" d="M106.262 63.3482L102.55 72.0332H110.145L106.262 63.3482ZM100.642 76.3756L98.7014 80.7015H93.6605L103.299 58.9551H109.191L118.898 80.7015H113.857L111.9 76.3756H100.642Z" fill="#3F3F3F"/>
</svg>
