<svg width="235" height="141" viewBox="0 0 235 141" fill="none" xmlns="http://www.w3.org/2000/svg">
<rect width="235" height="141" fill="white"/>
<path d="M147.816 74.3909C147.788 74.224 147.788 74.0787 148.62 73.8191C149.448 73.5626 151.463 72.8796 152.687 72.2028C153.911 71.5198 154.115 71.424 154.402 71.6156C154.69 71.8041 154.606 72.2677 154.606 72.5953V75.9145C155.054 75.179 156.525 72.7313 157.693 72.0112C158.611 71.4425 158.936 71.3962 159.505 71.3838C160.188 71.3714 161.801 71.7918 161.872 73.4946C161.927 74.8266 160.945 75.3613 160.32 75.2778C159.82 75.2068 159.461 74.7463 159.165 74.2827C158.865 73.8129 158.389 73.5348 157.913 73.6955C157.437 73.8593 154.77 75.59 154.618 78.05C154.51 79.8611 154.618 85.5074 154.618 85.5074C154.618 86.3635 154.946 86.6942 155.329 86.9229C155.709 87.1547 157.109 87.167 157.502 87.2227C157.901 87.2783 157.885 87.371 157.885 87.4946C157.885 87.6152 157.885 87.6739 157.533 87.6739H148.156C147.856 87.6739 147.736 87.6152 147.736 87.439C147.736 87.1948 148.128 87.2381 148.428 87.1948C148.728 87.1547 150.313 87.2845 150.768 86.4871C151.101 85.9648 151.061 85.1242 151.061 85.1242L151.015 75.2068C151.015 74.4063 150.777 74.2889 150.557 74.1622C150.335 74.0355 149.967 73.9675 149.191 74.2302C148.459 74.4712 147.955 74.6968 147.816 74.3909Z" fill="#3F3F3F"/>
<path d="M115.024 74.3943C114.897 74.1501 115.132 73.9925 115.827 73.8102C116.603 73.6031 118.303 73.087 119.65 72.3237C120.997 71.5634 121.229 71.483 121.514 71.5758C121.801 71.6716 121.773 72.1753 121.773 72.5833V85.415C121.773 86.1351 121.869 86.4349 122.193 86.7347C122.521 87.0345 123.337 87.2106 124.397 87.2106C124.876 87.2106 125.024 87.2663 125.024 87.4702C125.024 87.6742 124.876 87.6742 124.684 87.6742H115.379C115.092 87.6742 115.024 87.5506 115.024 87.4301C115.024 87.2786 115.15 87.1828 115.583 87.1828C115.948 87.1828 117.632 87.3095 118.015 86.4349C118.163 86.1011 118.235 85.6345 118.235 85.1987V75.0186C118.235 74.246 117.635 73.9029 116.943 74.0698C116.133 74.2552 115.19 74.7126 115.024 74.3943Z" fill="#3F3F3F"/>
<path d="M119.767 65.5184C121.031 65.5184 122.058 64.4924 122.058 63.2314C122.058 61.9674 121.031 60.9445 119.767 60.9445C118.507 60.9445 117.484 61.9674 117.484 63.2314C117.484 64.4924 118.507 65.5184 119.767 65.5184Z" fill="#3F3F3F"/>
<path d="M130.952 80.0715C131.412 84.2344 133.891 87.4732 136.963 86.9293C140.041 86.3854 141.583 83.4463 141.212 78.7395C140.832 73.9523 138.465 71.5633 135.279 71.8507C131.984 72.1505 130.488 75.9055 130.952 80.0715ZM133.999 71.1183C137.964 70.3765 143.604 71.2512 144.887 77.4569C146.166 83.6626 141.895 86.9664 138.19 87.773C134.568 88.558 128.418 87.9986 127.305 81.3231C126.304 75.3306 130.652 71.7425 133.999 71.1183Z" fill="#3F3F3F"/>
<path d="M87.0539 86.6697H89.3532C97.9078 86.6697 100.204 85.8754 103.214 81.8763C106.224 77.8772 106.583 72.135 106.583 70.1942C106.583 68.2534 106.067 63.3827 103.057 59.2631C100.043 55.1434 95.015 54.0741 90.6172 54.0741H87.0353C86.1855 54.0741 86.1422 54.4512 86.1422 55.0445V85.9156C86.1422 86.5893 86.3802 86.6697 87.0539 86.6697ZM73.125 87.3929C73.125 87.0807 73.5298 87.0282 73.9069 87.0158C78.2614 86.8922 79.0742 86.7408 79.5718 86.2247C79.8437 85.9403 80.2424 85.7086 80.2424 83.6904V55.9253C80.2424 53.4313 77.2137 53.8269 75.0751 53.6074C74.3241 53.5333 74.2623 53.4313 74.2623 53.2119C74.2623 52.9955 74.4044 52.8905 74.7969 52.875H92.3418C111.633 52.875 112.619 66.977 112.619 70.7381C112.619 78.8198 107.275 87.7081 96.106 87.7081H73.6874C73.4124 87.7081 73.125 87.671 73.125 87.3929Z" fill="#3F3F3F"/>
</svg>
