<svg width="235" height="141" viewBox="0 0 235 141" fill="none" xmlns="http://www.w3.org/2000/svg">
<rect width="235" height="141" fill="white"/>
<path d="M66.5798 56.8575C72.6299 56.8575 78.6788 56.8628 84.729 56.8549C84.7355 58.5084 84.742 60.162 84.7264 61.8169C80.4539 61.8156 76.1801 61.8129 71.9064 61.8182C71.909 63.8938 71.9038 65.9707 71.909 68.0463C75.6505 68.0383 79.392 68.045 83.1322 68.0436C83.153 69.6919 83.1283 71.3402 83.1452 72.9885C79.3998 72.9845 75.6557 72.9925 71.9116 72.9845C71.9025 76.8949 71.9064 80.8053 71.909 84.7157C70.1352 84.6958 68.3614 84.6958 66.5876 84.7144C66.5681 75.4292 66.585 66.1427 66.5798 56.8575Z" fill="#3F3F3F"/>
<path d="M88.2582 84.7156C88.2517 75.4264 88.2504 66.1373 88.2595 56.8481C94.5114 56.868 100.765 56.8574 107.018 56.8534C107.019 58.5083 107.011 60.1632 107.022 61.8168C102.507 61.8168 97.9913 61.8089 93.4768 61.8221C93.4911 63.7641 93.4781 65.7074 93.4833 67.6506C97.6296 67.6401 101.774 67.6467 105.921 67.6467C105.905 69.2936 105.923 70.9419 105.909 72.5889C101.768 72.5929 97.6257 72.5955 93.4846 72.5862C93.4742 74.97 93.495 77.3538 93.4742 79.7363C98.1931 79.7522 102.912 79.739 107.632 79.7429C107.644 81.3965 107.644 83.0501 107.632 84.705C101.175 84.7103 94.7157 84.6878 88.2582 84.7156Z" fill="#3F3F3F"/>
<path d="M111.637 56.8481C113.516 56.8627 115.395 56.8667 117.274 56.8481C120.665 63.3209 124.053 69.7937 127.45 76.2625C127.462 69.795 127.46 63.3275 127.45 56.8614C129.107 56.8521 130.763 56.864 132.42 56.8548C132.428 66.1399 132.427 75.4251 132.421 84.7103C130.649 84.697 128.876 84.705 127.105 84.705C123.628 78.0761 120.143 71.4512 116.647 64.8316C116.649 71.4592 116.65 78.0854 116.646 84.7129C114.976 84.6984 113.305 84.6918 111.634 84.7169C111.646 75.4277 111.641 66.1373 111.637 56.8481Z" fill="#3F3F3F"/>
<path d="M137.508 56.8534C141.378 56.8653 145.249 56.8534 149.119 56.86C151.242 56.8944 153.415 57.5029 155.051 58.9276C156.765 60.2928 157.765 62.3512 158.391 64.4268C158.92 66.3171 159.112 68.2882 159.145 70.2487C159.068 73.2767 158.648 76.3775 157.272 79.1026C156.411 80.9903 154.975 82.6188 153.177 83.6228C151.858 84.3517 150.353 84.6586 148.864 84.6983C145.082 84.7168 141.299 84.6838 137.517 84.7155C137.491 75.4277 137.509 66.1399 137.508 56.8534ZM142.783 61.7083C142.768 67.7551 142.775 73.8019 142.779 79.8487C144.461 79.8408 146.143 79.8487 147.825 79.8447C148.514 79.8262 149.217 79.7389 149.852 79.4558C151.082 78.9399 151.955 77.8221 152.534 76.6408C153.511 74.4871 153.725 72.061 153.661 69.7182C153.602 67.4733 153.267 65.0697 151.81 63.2865C150.935 62.1832 149.485 61.8168 148.155 61.7281C146.364 61.6951 144.573 61.7348 142.783 61.7083Z" fill="#3F3F3F"/>
<path d="M162.704 84.722C162.685 75.4302 162.687 66.1385 162.703 56.8467C164.474 56.8731 166.247 56.8533 168.018 56.8546C168.026 66.1371 168.03 75.421 168.017 84.7048C166.245 84.7128 164.474 84.6784 162.704 84.722Z" fill="#3F3F3F"/>
</svg>
