<svg width="235" height="141" viewBox="0 0 235 141" fill="none" xmlns="http://www.w3.org/2000/svg">
<rect width="235" height="141" fill="white"/>
<path d="M168.11 64.5763L167.883 64.658C167.002 62.5878 165.743 60.9398 164.106 59.7139C162.495 58.4887 160.468 57.8761 158.025 57.8761C156.666 57.8761 155.369 58.1894 154.135 58.816C152.901 59.4146 151.818 60.2724 150.886 61.3895C149.979 62.4786 149.249 63.7998 148.696 65.3529C148.142 66.9046 147.865 68.6203 147.865 70.5C147.865 72.3789 148.142 74.0946 148.696 75.647C149.25 77.1995 149.98 78.5342 150.886 79.6513C151.818 80.7404 152.9 81.5846 154.134 82.184C155.368 82.7833 156.666 83.083 158.025 83.083C160.443 83.083 162.406 82.6745 163.917 81.8575C165.453 81.0125 166.75 79.7322 167.808 78.0165L168.034 78.0981L167.959 80.7125C167.38 81.3662 166.712 81.952 165.957 82.4697C165.202 82.9602 164.384 83.3827 163.502 83.7371C162.646 84.0629 161.752 84.3078 160.821 84.4718C159.889 84.6623 158.957 84.7575 158.025 84.7575C156.086 84.7575 154.236 84.4174 152.473 83.7371C150.71 83.0554 149.161 82.102 147.827 80.8768C146.492 79.6237 145.435 78.1257 144.654 76.3828C143.873 74.6127 143.483 72.6517 143.483 70.5C143.483 68.3482 143.874 66.4005 144.655 64.6569C145.435 62.8868 146.492 61.3755 147.827 60.1231C149.161 58.87 150.71 57.9166 152.473 57.2628C154.236 56.5826 156.086 56.2424 158.024 56.2424C158.957 56.2424 159.889 56.3237 160.821 56.4863C161.752 56.6502 162.646 56.9091 163.502 57.2628C164.383 57.5901 165.202 58.0125 165.957 58.5303C166.712 59.02 167.38 59.5918 167.959 60.2456L168.11 64.5763Z" fill="#3F3F3F"/>
<path d="M81.2684 72.379C80.9855 72.5151 80.7155 72.692 80.4584 72.9096C80.2012 73.1273 80.0726 73.427 80.0726 73.8086V78.8341C78.8363 80.713 77.2528 82.1701 75.3221 83.2055C73.3922 84.2402 71.2561 84.7575 68.914 84.7575C66.932 84.7575 65.0399 84.417 63.2378 83.7361C61.4364 83.0551 59.8536 82.1017 58.4893 80.8759C57.1251 79.6228 56.044 78.1252 55.2462 76.3831C54.4484 74.6124 54.0494 72.6511 54.0494 70.4994C54.0494 68.3485 54.4487 66.4012 55.2472 64.6576C56.0444 62.8876 57.1251 61.376 58.4893 60.123C59.8536 58.8699 61.4364 57.9169 63.2378 57.2639C65.0399 56.5829 66.932 56.2424 68.914 56.2424C69.8662 56.2424 70.8183 56.3241 71.7704 56.4873C72.7232 56.6506 73.6368 56.9094 74.5111 57.2639C75.4125 57.5904 76.2492 58.0125 77.0214 58.5302C77.7935 59.0207 78.4756 59.5924 79.0677 60.2454L79.223 64.576L78.9906 64.6576C78.0906 62.5883 76.8038 60.9407 75.1303 59.7149C73.4825 58.489 71.4104 57.8761 68.914 57.8761C67.5241 57.8761 66.1984 58.1893 64.937 58.8159C63.6763 59.4152 62.5699 60.273 61.6178 61.3893C60.6907 62.4791 59.9439 63.8002 59.3775 65.3526C58.8111 66.9049 58.5279 68.6206 58.5279 70.4994C58.5279 72.3511 58.7986 74.0531 59.34 75.6055C59.9057 77.1586 60.6518 78.4933 61.5782 79.6096C62.531 80.6987 63.6377 81.5565 64.8984 82.183C66.1598 82.7823 67.4984 83.082 68.914 83.082C71.5911 83.082 73.8818 82.5375 75.786 81.4484V73.8086C75.786 73.4277 75.6446 73.128 75.3617 72.9096C75.1046 72.692 74.8474 72.5147 74.5903 72.378L74.6248 72.1739C74.7534 72.1989 74.9851 72.2262 75.3201 72.2555C75.6551 72.2806 76.0026 72.3078 76.3626 72.3372H79.6829C79.9921 72.3121 80.2882 72.2849 80.571 72.2555C80.8539 72.2305 81.0725 72.2032 81.2268 72.1739L81.2684 72.379Z" fill="#3F3F3F"/>
<path d="M109.784 57.7382C109.532 57.8711 109.281 58.0442 109.03 58.2576C108.778 58.4702 108.64 58.8693 108.615 59.4548C108.592 60.0934 108.566 60.9049 108.539 61.8891C108.539 62.8474 108.528 63.9386 108.506 65.1628C108.506 66.3862 108.494 67.7163 108.471 69.1531V73.623C108.448 75.3522 108.246 76.8288 107.867 78.053C107.49 79.2771 106.988 80.3012 106.359 81.1252C105.755 81.9506 105.077 82.6026 104.322 83.081C103.593 83.5602 102.864 83.9194 102.135 84.1586C101.431 84.4244 100.765 84.5843 100.136 84.6381C99.5075 84.7179 99.017 84.7578 98.6647 84.7578C97.2316 84.7578 95.8488 84.5584 94.5162 84.1597C93.1836 83.7868 92.0146 83.1748 91.0092 82.3235C90.0038 81.4715 89.1993 80.3673 88.5958 79.0109C87.9923 77.6539 87.6905 76.0041 87.6905 74.0616V69.5518V65.4009C87.6905 64.1243 87.679 62.9806 87.6558 61.9698C87.6558 60.9318 87.6443 60.0934 87.6211 59.4548C87.5987 58.8693 87.4605 58.4706 87.2067 58.2586C86.9555 58.0453 86.7043 57.8718 86.4531 57.7382L86.4868 57.5388C86.6124 57.5633 86.814 57.5899 87.0917 57.6186C87.3931 57.643 87.6945 57.6696 87.9959 57.6983C88.3231 57.6983 88.6371 57.7105 88.9379 57.735H90.2963C90.5984 57.7105 90.9127 57.6983 91.2392 57.6983C91.5664 57.6738 91.8682 57.6472 92.1445 57.6186C92.4459 57.5941 92.6594 57.5675 92.785 57.5388L92.8197 57.7382C92.5434 57.8711 92.2793 58.0442 92.0275 58.2576C91.8014 58.4702 91.6758 58.8693 91.6507 59.4548C91.6275 60.0934 91.6024 60.9314 91.5753 61.9688V74.0616C91.5753 76.9617 92.2165 79.1036 93.4989 80.4873C94.7813 81.8709 96.6794 82.5627 99.1932 82.5627C99.9223 82.5627 100.752 82.4693 101.682 82.2826C102.613 82.0699 103.48 81.6442 104.285 81.0056C105.114 80.3669 105.806 79.4625 106.359 78.2922C106.937 77.1212 107.227 75.5648 107.227 73.623C107.227 71.5209 107.215 69.725 107.192 68.235C107.192 66.7185 107.18 65.4279 107.157 64.3632C107.157 63.272 107.146 62.3409 107.122 61.5701C107.1 60.7985 107.075 60.0934 107.047 59.4548C107.025 58.8693 106.886 58.4702 106.633 58.2576C106.381 58.0449 106.13 57.8718 105.879 57.7382L105.913 57.5388C106.19 57.592 106.504 57.6455 106.856 57.6994C107.208 57.7231 107.535 57.735 107.837 57.735C108.113 57.735 108.427 57.7231 108.779 57.6994C109.156 57.6462 109.483 57.5927 109.76 57.5388L109.784 57.7382Z" fill="#3F3F3F"/>
<path d="M138.298 64.5763L138.06 64.658C137.132 62.5878 135.806 60.9398 134.084 59.7139C132.388 58.4887 130.254 57.8761 127.682 57.8761C126.252 57.8761 124.887 58.1894 123.588 58.816C122.289 59.4146 121.15 60.2724 120.169 61.3895C119.214 62.4786 118.446 63.7998 117.863 65.3529C117.28 66.9046 116.988 68.6203 116.988 70.5C116.988 72.3789 117.28 74.0946 117.863 75.647C118.446 77.1995 119.214 78.5342 120.169 79.6513C121.15 80.7404 122.289 81.5846 123.587 82.184C124.887 82.7833 126.252 83.083 127.682 83.083C130.227 83.083 132.295 82.6745 133.885 81.8575C135.502 81.0125 136.867 79.7322 137.981 78.0165L138.219 78.0981L138.139 80.7125C137.53 81.3662 136.827 81.952 136.032 82.4697C135.238 82.9602 134.376 83.3827 133.448 83.7371C132.547 84.0629 131.606 84.3078 130.626 84.4718C129.645 84.6623 128.664 84.7575 127.684 84.7575C125.642 84.7575 123.693 84.4174 121.838 83.7371C119.983 83.0554 118.353 82.102 116.949 80.8768C115.544 79.6237 114.43 78.1257 113.609 76.3828C112.787 74.6127 112.375 72.6517 112.375 70.5C112.375 68.3482 112.787 66.4005 113.609 64.6569C114.431 62.8868 115.544 61.3755 116.949 60.1231C118.353 58.87 119.983 57.9166 121.838 57.2628C123.694 56.5826 125.642 56.2424 127.684 56.2424C128.664 56.2424 129.644 56.3237 130.625 56.4863C131.606 56.6502 132.547 56.9091 133.447 57.2628C134.375 57.5901 135.237 58.0125 136.032 58.5303C136.827 59.02 137.53 59.5918 138.139 60.2456L138.298 64.5763Z" fill="#3F3F3F"/>
<path d="M179.74 82.1587C179.612 82.1366 179.394 82.1123 179.088 82.0857C178.806 82.0857 178.499 82.0743 178.166 82.0516C177.833 82.0516 177.513 82.0405 177.206 82.0185H174.904C174.597 82.0405 174.289 82.0649 173.982 82.0915C173.7 82.1142 173.483 82.1389 173.33 82.1655L173.294 82.0175C173.55 81.8942 173.806 81.7336 174.061 81.5356C174.318 81.3383 174.459 80.9681 174.484 80.4249C174.508 79.8323 174.52 79.2151 174.52 78.5733C174.543 77.9314 174.555 77.2032 174.555 76.3887V73.6113V69.8721V66.1319V63.3185C174.555 62.5034 174.543 61.7872 174.52 61.17C174.52 60.5281 174.508 59.9112 174.484 59.3194C174.461 58.7761 174.32 58.4059 174.062 58.2086C173.807 57.986 173.551 57.813 173.295 57.6897L173.33 57.5417C173.483 57.5911 173.7 57.6281 173.982 57.6527C174.289 57.6527 174.596 57.6641 174.903 57.6868C175.236 57.7095 175.556 57.7209 175.863 57.7209H177.206C177.513 57.6982 177.833 57.6868 178.165 57.6868C178.499 57.6641 178.806 57.6394 179.088 57.6128C179.394 57.5901 179.612 57.5654 179.74 57.5388L179.775 57.6878C179.494 57.8111 179.225 57.9837 178.969 58.2057C178.738 58.403 178.611 58.7729 178.585 59.3155C178.561 59.9087 178.536 60.5262 178.508 61.168V78.5713C178.532 79.2125 178.557 79.8294 178.585 80.4219C178.608 80.9652 178.736 81.3354 178.969 81.5327C179.224 81.73 179.493 81.8906 179.775 82.0146L179.74 82.1587Z" fill="#3F3F3F"/>
</svg>
