<svg width="235" height="141" viewBox="0 0 235 141" fill="none" xmlns="http://www.w3.org/2000/svg">
<rect width="235" height="141" fill="white"/>
<path fill-rule="evenodd" clip-rule="evenodd" d="M171.243 56.9345H184.475V59.0511C184.091 58.9219 183.689 58.8553 183.283 58.8539H175.677V68.7456H183.075C183.607 68.7456 184.08 68.6861 184.475 68.5875V70.694C184.139 70.6164 183.677 70.5765 183.106 70.5765H175.677V80.804H183.056C183.46 80.804 183.943 80.7445 184.475 80.6169V82.8916H171.263C171.362 82.5146 171.421 82.1099 171.421 81.6654V58.1904C171.421 57.6763 171.362 57.2506 171.243 56.9345ZM168.179 63.671L164.356 63.6413C164.168 61.4854 162.937 59.3978 160.228 59.012C154.425 58.4877 152.788 64.8878 152.936 69.5664C153.084 74.0768 153.804 81.0113 159.793 81.0113C162.306 81.0113 164.719 78.4197 164.642 76.2327L168.178 76.2044C167.922 80.714 162.768 83.3253 160.315 83.4145C151.932 83.7016 148.423 78.0919 148.247 70.09C148.089 62.8393 151.044 56.4 159.33 56.4C166.426 56.4994 167.794 60.7132 168.179 63.671ZM108.553 79.9418L111.085 77.8156C112.406 80.0027 113.49 81.0012 116.11 81.0012C118.77 81.0012 121.008 79.3783 121.008 76.5104C121.008 75.0956 120.435 73.9383 119.302 73.0689C118.79 72.6621 117.49 71.9601 115.441 70.9812C112.376 69.507 109.391 67.5882 109.391 63.7305C109.391 58.8641 113.509 56.7176 117.854 56.5588C120.426 56.4602 123.617 57.8851 124.909 59.487L122.337 61.4753C121.878 60.6161 121.196 59.8976 120.364 59.3961C119.531 58.8946 118.579 58.6288 117.608 58.6269C114.327 58.6269 111.726 62.4448 114.445 65.0763C115.135 65.7493 116.544 66.5796 118.691 67.5694C122.121 69.1821 125.047 71.111 125.047 75.3741C125.047 76.8469 124.663 78.2224 123.904 79.4784C122.376 82.0106 119.825 83.2767 116.259 83.2767C112.159 83.276 111.351 82.3369 108.553 79.9418ZM72.4737 56.9345H85.696V59.0511C85.3116 58.9217 84.909 58.8551 84.5036 58.8539H76.8975V68.7456H84.2963C84.8286 68.7456 85.3017 68.6861 85.696 68.5875V70.694C85.3609 70.6164 84.8979 70.5765 84.336 70.5765H76.8975V80.804H84.2768C84.6805 80.804 85.1637 80.7445 85.6953 80.6169V82.8916H72.4932C72.582 82.5146 72.6413 82.1099 72.6413 81.6654V58.1904C72.6413 57.6763 72.582 57.2506 72.4737 56.9345ZM49.35 56.9345H54.1581V57.1716C54.1581 57.3898 54.2274 57.6763 54.3451 58.0425L61.1235 78.5285L68.0788 57.9533C68.1871 57.6067 68.2464 57.2709 68.2464 56.9345H70.5807C70.3445 57.35 70.1668 57.7162 70.0585 58.0425L62.1173 81.8329C62.0386 82.0592 61.9693 82.4167 61.91 82.8909H57.9687C57.9094 82.5315 57.8205 82.1776 57.7029 81.8329L49.9221 58.2303C49.8332 58.0127 49.6462 57.5675 49.3601 56.9345H49.35ZM100.415 70.4671C103.567 69.8442 105.981 67.42 105.981 63.9582C105.981 59.4173 102.199 56.9345 97.9613 56.9345H90.2173C90.3257 57.3304 90.3849 57.7459 90.3849 58.181V81.6444C90.3849 82.1484 90.3257 82.5733 90.2173 82.8909H94.8282C94.716 82.485 94.6598 82.0656 94.6613 81.6444V70.8623L96.1391 71.0211L103.864 82.8909H108.504L100.415 70.4671ZM99.6167 68.4881C98.7796 69.082 97.7743 69.3786 96.6223 69.3786H94.6512V58.8234H96.4143C97.9223 58.8234 99.0938 59.1998 99.9316 59.951C101.075 60.9902 101.656 62.3948 101.656 64.1554C101.656 66.0546 100.976 67.499 99.6167 68.4881ZM147.479 81.8126L138.868 57.7952C138.772 57.5176 138.716 57.2279 138.701 56.9345H134.977C134.977 57.2412 134.928 57.5675 134.809 57.8938L126.465 81.8126C126.357 82.1585 126.179 82.5138 125.943 82.8902H128.347C128.332 82.525 128.382 82.1602 128.495 81.8126L130.966 74.7592H140.474L142.917 81.8126C143.046 82.1977 143.105 82.553 143.105 82.8902H148.09C147.805 82.4856 147.597 82.1186 147.479 81.8126ZM131.616 72.8506L135.636 61.1287L139.764 72.8506H131.616Z" fill="#3F3F3F"/>
</svg>
